# AST/ASF file generated using VICON BodyLanguage
# -----------------------------------------------
:version 1.10
:name VICON
:units
  mass 1.0
  length 0.45
  angle deg
:documentation
   .ast/.asf automatically generated from VICON data using
   VICON BodyBuilder and BodyLanguage model FoxedUp or BRILLIANT.MOD
:root
   order TX TY TZ RX RY RZ
   axis XYZ
   position 0 0 0  
   orientation 0 0 0 
:bonedata
  begin
     id 1 
     name lhipjoint
     direction 0.630082 -0.636569 0.44472 
     length 2.82754 
     axis 0 0 0  XYZ
  end
  begin
     id 2 
     name lfemur
     direction 0.34202 -0.939693 0  
     length 7.26371  
     axis 0 0 20  XYZ
    dof rx ry rz
    limits (-160.0 20.0)
           (-70.0 70.0)
           (-60.0 70.0)
  end
  begin
     id 3 
     name ltibia
     direction 0.34202 -0.939693 0   
     length 7.88616   
     axis 0 0 20   XYZ
    dof rx
    limits (-10.0 170.0)
  end
  begin
     id 4 
     name lfoot
     direction 0.0603448 -0.165796 0.984312   
     length 1.77861   
     axis -90 7.62852e-016 20   XYZ
    dof rx rz
    limits (-45.0 90.0)
           (-70.0 20.0)
  end
  begin
     id 5 
     name ltoes
     direction 1.53577e-011 -4.21876e-011 1   
     length 0.902235   
     axis -90 7.62852e-016 20   XYZ
    dof rx
    limits (-90.0 20.0)
  end
  begin
     id 6 
     name rhipjoint
     direction -0.656778 -0.61817 0.431866   
     length 2.9117  
     axis 0 0 0  XYZ 
  end
  begin
     id 7 
     name rfemur
     direction -0.34202 -0.939693 0   
     length 6.81603   
     axis 0 0 -20   XYZ
    dof rx ry rz
    limits (-160.0 20.0)
           (-70.0 70.0)
           (-70.0 60.0)
  end
  begin
     id 8 
     name rtibia
     direction -0.34202 -0.939693 0   
     length 8.05997   
     axis 0 0 -20   XYZ
    dof rx
    limits (-10.0 170.0)
 end
 begin
     id 9 
     name rfoot
     direction -0.0862404 -0.236944 0.967688   
     length 1.84899  
     axis -90 -7.62852e-016 -20   XYZ
    dof rx rz
    limits (-45.0 90.0)
           (-20.0 70.0)
  end
  begin
     id 10 
     name rtoes
     direction -1.53561e-011 -4.21798e-011 1   
     length 0.931579   
     axis -90 -7.62852e-016 -20   XYZ
    dof rx
    limits (-90.0 20.0)
  end
  begin
     id 11 
     name lowerback
     direction -0.0110203 0.991769 -0.127564   
     length 2.05686   
     axis 0 0 0   XYZ
    dof rx ry rz
    limits (-20.0 45.0)
           (-30.0 30.0)
           (-30.0 30.0)
  end
  begin
     id 12 
     name upperback
     direction 0.0109719 0.99993 -0.00432479   
     length 2.06234   
     axis 0 0 0   XYZ
    dof rx ry rz
    limits (-20.0 45.0)
           (-30.0 30.0)
           (-30.0 30.0)
  end
  begin
     id 13 
     name thorax
     direction 0.0173308 0.998351 0.0547306   
     length 2.09856   
     axis 0 0 0   XYZ
    dof rx ry rz
    limits (-20.0 45.0)
           (-30.0 30.0)
           (-30.0 30.0)
  end
  begin
     id 14 
     name lowerneck
     direction -0.0311736 0.989033 0.144366   
     length 1.98151   
     axis 0 0 0   XYZ
    dof rx ry rz
    limits (-20.0 45.0)
           (-30.0 30.0)
           (-30.0 30.0)
  end
  begin
     id 15 
     name upperneck
     direction 0.0421057 0.975772 -0.214698   
     length 2.01457   
     axis 0 0 0   XYZ
    dof rx ry rz
    limits (-20.0 45.0)
           (-30.0 30.0)
           (-30.0 30.0)
  end
  begin
     id 16
     name head
     direction 0.0136911 0.995958 -0.0887718  
     length 2.03562  
     axis 0 0 0   XYZ
    dof rx ry rz
    limits (-20.0 45.0)
           (-30.0 30.0)
           (-30.0 30.0)
  end
  begin
     id 17 
     name lclavicle
     direction 0.915335 0.396201 0.0720134  
     length 4.16217  
     axis 0 0 0   XYZ
    dof ry rz
    limits (-20.0 10.0)
           (0.0 20.0)
  end
  begin
     id 18 
     name lhumerus
     direction 1 -4.48965e-011 6.383e-018   
     length 4.93042   
     axis -180 -30 -90   XYZ
    dof rx ry rz
    limits (-60.0 90.0)
           (-90.0 90.0)
           (-90.0 90.0)
  end
  begin
     id 19
     name lradius
     direction 1 -4.48972e-011 8.8689e-027   
     length 3.68177   
     axis -180 -30 -90   XYZ
    dof rx
    limits (-10.0 170.0)
  end
  begin
     id 20
     name lwrist
     direction 1 -4.48953e-011 1.17971e-026   
     length 1.84089   
     axis -7.69454e-015 90 90   XYZ
    dof ry
    limits (-180.0 0.0)
 end
  begin
     id 21 
     name lhand
     direction 1 -4.49027e-011 2.35802e-026   
     length 0.721479   
     axis -1.50533e-014 90 90   XYZ
    dof rx rz
    limits (-90.0 90.0)
           (-45.0 45.0)
  end
  begin
     id 22 
     name lfingers
     direction 1 -4.48915e-011 4.72027e-026   
     length 0.581675   
     axis -3.01059e-014 90 90   XYZ
    dof rx
    limits (0.0 90.0)
  end
  begin
     id 23
     name lthumb
     direction 0.707107 -6.34948e-011 0.707107   
     length 0.835172   
     axis -90 45 -5.12164e-014   XYZ
    dof rx rz
    limits (-45.0 45.0)
           (-45.0 45.0)
  end
  begin
     id 24 
     name rclavicle
     direction -0.882781 0.469197 0.0234974   
     length 3.95647  
     axis 0 0 0   XYZ 
    dof ry rz
    limits (-10.0 20.0)
           (-20.0 0.0)
  end
  begin
     id 25 
     name rhumerus
     direction -1 -4.48965e-011 -1.54906e-018  
     length 5.07905   
     axis -180 30 90   XYZ
    dof rx ry rz
    limits (-90.0 60.0)
           (-90.0 90.0)
           (-90.0 90.0)
  end
  begin
     id 26 
     name rradius
     direction -1 -4.48972e-011 5.47489e-027   
     length 3.54394   
     axis -180 30 90   XYZ
    dof rx
    limits (-10.0 170.0)
  end
  begin
     id 27 
     name rwrist
     direction -1 -4.48955e-011 1.17969e-026   
     length 1.77197   
     axis -7.69454e-015 -90 -90   XYZ
    dof ry
    limits (-180.0 0.0)
  end
  begin
     id 28
     name rhand
     direction -1 -4.48982e-011 2.35888e-026   
     length 0.681156   
     axis -1.50533e-014 -90 -90   XYZ
    dof rx rz
    limits (-90.0 90.0)
           (-45.0 45.0)
  end
  begin
     id 29
     name rfingers
     direction -1 -4.48955e-011 4.71877e-026   
     length 0.549165   
     axis -3.01059e-014 -90 -90   XYZ
    dof rx
    limits (0.0 90.0)
  end
  begin
     id 30
     name rthumb
     direction -0.707107 -6.3491e-011 0.707107   
     length 0.788495   
     axis -90 -45 5.12164e-014   XYZ
    dof rx rz
    limits (-45.0 45.0)
           (-45.0 45.0)
  end
:hierarchy
  begin
    root lhipjoint rhipjoint lowerback
    lhipjoint lfemur
    lfemur ltibia
    ltibia lfoot
    lfoot ltoes
    rhipjoint rfemur
    rfemur rtibia
    rtibia rfoot
    rfoot rtoes
    lowerback upperback
    upperback thorax
    thorax lowerneck lclavicle rclavicle
    lowerneck upperneck
    upperneck head
    lclavicle lhumerus
    lhumerus lradius
    lradius lwrist
    lwrist lhand lthumb
    lhand lfingers
    rclavicle rhumerus
    rhumerus rradius
    rradius rwrist
    rwrist rhand rthumb
    rhand rfingers
  end

#!OML:ASF H:\Bending\Project 1\Capture day 1\Session 1\Subject.ASF
:FULLY-SPECIFIED
:DEGREES
321
root -8.60381 18.0099 -16.387 197.357 86.386 189.265
lowerback 4.20648 -0.124701 0.545552
upperback -2.86292 -0.00232683 1.98925
thorax -5.32708 0.0317426 1.7564
lowerneck -25.1052 -3.90206 -5.29839
upperneck 27.9993 -4.11001 2.78257
head 13.9116 -1.85344 1.24447
rclavicle 5.76476e-015 -1.19271e-014
rhumerus -46.905 -4.77388 -67.2885
rradius 26.0838
rwrist 31.0996
rhand -13.0376 -10.0938
rfingers 7.12502
rthumb 13.057 -39.6651
lclavicle 5.76476e-015 -1.19271e-014
lhumerus -46.4357 -3.53826 91.5637
lradius 30.5985
lwrist 18.8108
lhand -35.1564 6.38673
lfingers 7.12502
lthumb -8.29569 36.2038
rfemur 4.83649 -4.45998 14.9204
rtibia 1.11319e-014
rfoot -11.9846 -18.7633
rtoes 7.02209
lfemur -9.66556 -16.2659 -11.7599
ltibia 21.72
lfoot -22.4881 10.1256
ltoes -11.7682
322
root -8.61626 18.0094 -16.3818 197.185 86.4174 189.15
lowerback 4.2045 -0.131771 0.531621
upperback -2.85254 -0.0161776 1.9427
thorax -5.31456 0.0239863 1.71697
lowerneck -25.0529 -3.92952 -5.462
upperneck 28.057 -4.16091 3.0144
head 13.9391 -1.8586 1.35662
rclavicle -1.11816e-014 -2.54444e-014
rhumerus -46.8835 -6.8485 -65.6695
rradius 25.0435
rwrist 32.3074
rhand -12.4255 -9.81379
rfingers 7.12502
rthumb 13.647 -39.3464
lclavicle -1.11816e-014 -2.54444e-014
lhumerus -46.0179 -3.55069 91.4569
lradius 28.6175
lwrist 17.457
lhand -34.8097 5.73761
lfingers 7.12502
lthumb -7.96106 35.5677
rfemur 4.8697 -4.42658 14.9076
rtibia -6.36111e-015
rfoot -12.0935 -18.6918
rtoes 7.47995
lfemur -9.57141 -16.4524 -11.7743
ltibia 21.6256
lfoot -22.5575 10.2442
ltoes -11.3028
323
root -8.62946 18.0104 -16.3756 197.891 86.4577 189.906
lowerback 4.20076 -0.14023 0.536498
upperback -2.84225 -0.0284402 1.92969
thorax -5.3013 0.0172508 1.70168
lowerneck -25.012 -3.94271 -5.59527
upperneck 28.1086 -4.18717 3.19734
head 13.963 -1.85714 1.44876
rclavicle 9.98893e-015 1.03368e-014
rhumerus -46.8348 -8.85871 -64.1296
rradius 24.1389
rwrist 33.4851
rhand -12.028 -9.56041
rfingers 7.12502
rthumb 14.03 -39.0669
lclavicle 9.98893e-015 1.03368e-014
lhumerus -45.7399 -3.80023 91.5539
lradius 27.212
lwrist 16.7354
lhand -34.545 5.25043
lfingers 7.12502
lthumb -7.70566 35.09
rfemur 4.87748 -4.3684 14.957
rtibia 6.36111e-015
rfoot -12.1883 -18.6266
rtoes 8.04397
lfemur -9.48681 -16.6639 -11.7294
ltibia 21.5334
lfoot -22.6432 10.3968
ltoes -10.8109
324
root -8.64344 18.0124 -16.3685 199.457 86.4946 191.516
lowerback 4.19855 -0.158667 0.557673
upperback -2.83367 -0.0502383 1.95769
thorax -5.29055 0.00631491 1.72069
lowerneck -24.9828 -3.93282 -5.6849
upperneck 28.1578 -4.17305 3.30678
head 13.9829 -1.8444 1.51172
rclavicle -7.05686e-015 1.43125e-014
rhumerus -46.7298 -10.5592 -62.8528
rradius 23.4068
rwrist 34.4845
rhand -11.8397 -9.4619
rfingers 7.12502
rthumb 14.2115 -38.9557
lclavicle -7.05686e-015 1.43125e-014
lhumerus -45.5796 -4.12858 91.7669
lradius 26.3574
lwrist 16.5536
lhand -34.3402 4.92081
lfingers 7.12502
lthumb -7.50798 34.7676
rfemur 4.86119 -4.29593 15.0706
rtibia -1.59028e-015
rfoot -12.2352 -18.588
rtoes 8.47607
lfemur -9.42138 -16.9049 -11.6234
ltibia 21.4577
lfoot -22.7466 10.5949
ltoes -10.388
325
root -8.65817 18.0144 -16.3607 201.573 86.5219 193.673
lowerback 4.20095 -0.188238 0.588718
upperback -2.82711 -0.0840958 2.01727
thorax -5.28432 -0.0100858 1.76805
lowerneck -24.9645 -3.9046 -5.7351
upperneck 28.2076 -4.12474 3.34623
head 14.0003 -1.82293 1.54637
rclavicle 2.98177e-016 1.27222e-014
rhumerus -46.5509 -11.7269 -62.0227
rradius 22.9177
rwrist 35.1113
rhand -11.8156 -9.56073
rfingers 7.12502
rthumb 14.2347 -39.0529
lclavicle 2.98177e-016 1.27222e-014
lhumerus -45.489 -4.39703 91.9893
lradius 25.9681
lwrist 16.7012
lhand -34.1906 4.70191
lfingers 7.12502
lthumb -7.36358 34.5538
rfemur 4.82915 -4.21816 15.2262
rtibia -2.38542e-014
rfoot -12.2287 -18.5804
rtoes 8.66739
lfemur -9.37653 -17.1698 -11.4762
ltibia 21.4065
lfoot -22.8723 10.8261
ltoes -10.0091
